# J.A.C.K. 1.1.3773 Freeware OBJ file
mtllib shelf.mtl
# 64 vertices
v -392.500000 287.000000 -83.500000
v -387.500000 287.000000 -88.500000
v -764.000000 287.000000 -119.000000
v -758.500000 125.000000 -88.500000
v -384.000000 175.500000 -80.000000
v -758.500000 287.000000 -83.500000
v -768.000000 175.500000 -80.000000
v -384.000000 228.500000 -80.000000
v -387.500000 125.000000 -88.500000
v -384.000000 174.500000 -80.000000
v -392.500000 125.000000 -83.500000
v -384.000000 266.500000 -128.000000
v -768.000000 228.500000 -80.000000
v -759.000000 125.000000 -124.000000
v -384.000000 136.000000 -80.000000
v -387.500000 125.000000 -119.500000
v -387.500000 287.000000 -83.500000
v -768.000000 174.500000 -80.000000
v -384.000000 227.500000 -80.000000
v -384.000000 267.500000 -128.000000
v -768.000000 266.500000 -128.000000
v -768.000000 136.000000 -80.000000
v -384.000000 136.000000 -128.000000
v -764.000000 125.000000 -124.000000
v -384.000000 266.500000 -80.000000
v -392.500000 287.000000 -124.500000
v -758.500000 125.000000 -83.500000
v -768.000000 227.500000 -80.000000
v -768.000000 267.500000 -128.000000
v -384.000000 135.000000 -80.000000
v -384.000000 267.500000 -80.000000
v -768.000000 136.000000 -128.000000
v -768.000000 266.500000 -80.000000
v -763.500000 287.000000 -88.500000
v -384.000000 135.000000 -128.000000
v -768.000000 135.000000 -80.000000
v -768.000000 267.500000 -80.000000
v -387.500000 125.000000 -83.500000
v -759.000000 125.000000 -119.000000
v -768.000000 135.000000 -128.000000
v -384.000000 175.500000 -128.000000
v -392.500000 287.000000 -119.500000
v -764.000000 125.000000 -119.000000
v -763.500000 125.000000 -88.500000
v -392.500000 125.000000 -124.500000
v -759.000000 287.000000 -124.000000
v -387.500000 287.000000 -124.500000
v -768.000000 175.500000 -128.000000
v -384.000000 228.500000 -128.000000
v -392.500000 287.000000 -88.500000
v -763.500000 287.000000 -83.500000
v -764.000000 287.000000 -124.000000
v -384.000000 174.500000 -128.000000
v -768.000000 228.500000 -128.000000
v -768.000000 174.500000 -128.000000
v -384.000000 227.500000 -128.000000
v -758.500000 287.000000 -88.500000
v -392.500000 125.000000 -88.500000
v -768.000000 227.500000 -128.000000
v -759.000000 287.000000 -119.000000
v -387.500000 287.000000 -119.500000
v -387.500000 125.000000 -124.500000
v -763.500000 125.000000 -83.500000
v -392.500000 125.000000 -119.500000
# 6 normals
vn 1.0000 0.0000 0.0000
vn -1.0000 -0.0000 0.0000
vn 0.0000 0.0000 1.0000
vn -0.0000 -1.0000 0.0000
vn 0.0000 0.0000 -1.0000
vn 0.0000 1.0000 -0.0000
# 24 texcoords
vt 6.0000 -0.0000 0.0000
vt -0.5000 -0.7813 0.0000
vt 0.2500 -0.0625 0.0000
vt -0.5000 -0.7500 0.0000
vt -6.0000 -0.7813 0.0000
vt 0.7813 -3.0938 0.0000
vt 0.0938 1.9688 0.0000
vt -6.0000 -0.7500 0.0000
vt 0.9375 -3.0938 0.0000
vt -6.0000 -1.5000 0.0000
vt 0.2500 1.9688 0.0000
vt 0.0938 -0.2188 0.0000
vt 6.0000 -0.7813 0.0000
vt 0.2500 -0.2188 0.0000
vt 0.0938 -3.0938 0.0000
vt 6.0000 -0.7500 0.0000
vt -6.0000 -0.0000 0.0000
vt 6.0000 -1.5000 0.0000
vt 0.7813 1.9688 0.0000
vt 0.2500 -3.0938 0.0000
vt 0.9375 1.9688 0.0000
vt 0.0938 -0.0625 0.0000
vt 1.0000 -0.7813 0.0000
vt 1.0000 -0.7500 0.0000
o Entity1(worldspawn)
s off
g Brush1
usemtl C1A0_LABFLRC
f 35/23/1 23/24/1 15/4/1 30/2/1
f 36/2/2 22/4/2 32/24/2 40/23/2
f 30/13/3 15/16/3 22/8/3 36/5/3
f 40/5/5 32/8/5 23/16/5 35/13/5
f 36/10/4 40/17/4 35/1/4 30/18/4
f 22/10/6 15/18/6 23/1/6 32/17/6
g Brush2
usemtl C1A0_LABFLRC
f 43/6/2 3/19/2 52/21/2 24/9/2
f 14/9/1 46/21/1 60/19/1 39/6/1
f 24/15/5 52/7/5 46/11/5 14/20/5
f 39/20/3 60/11/3 3/7/3 43/15/3
f 3/12/6 60/14/6 46/3/6 52/22/6
f 43/12/4 24/22/4 14/3/4 39/14/4
g Brush3
usemtl C1A0_LABFLRC
f 4/9/1 57/21/1 6/19/1 27/6/1
f 63/6/2 51/19/2 34/21/2 44/9/2
f 27/20/3 6/11/3 51/7/3 63/15/3
f 44/15/5 34/7/5 57/11/5 4/20/5
f 63/12/4 44/22/4 4/3/4 27/14/4
f 51/12/6 6/14/6 57/3/6 34/22/6
g Brush4
usemtl C1A0_LABFLRC
f 11/6/2 1/19/2 50/21/2 58/9/2
f 9/9/1 2/21/1 17/19/1 38/6/1
f 58/15/5 50/7/5 2/11/5 9/20/5
f 38/20/3 17/11/3 1/7/3 11/15/3
f 1/12/6 17/14/6 2/3/6 50/22/6
f 11/12/4 58/22/4 9/3/4 38/14/4
g Brush5
usemtl C1A0_LABFLRC
f 64/6/2 42/19/2 26/21/2 45/9/2
f 62/9/1 47/21/1 61/19/1 16/6/1
f 45/15/5 26/7/5 47/11/5 62/20/5
f 16/20/3 61/11/3 42/7/3 64/15/3
f 42/12/6 61/14/6 47/3/6 26/22/6
f 64/12/4 45/22/4 62/3/4 16/14/4
g Brush6
usemtl C1A0_LABFLRC
f 53/23/1 41/24/1 5/4/1 10/2/1
f 18/2/2 7/4/2 48/24/2 55/23/2
f 10/13/3 5/16/3 7/8/3 18/5/3
f 55/5/5 48/8/5 41/16/5 53/13/5
f 18/10/4 55/17/4 53/1/4 10/18/4
f 7/10/6 5/18/6 41/1/6 48/17/6
g Brush7
usemtl C1A0_LABFLRC
f 28/2/2 13/4/2 54/24/2 59/23/2
f 56/23/1 49/24/1 8/4/1 19/2/1
f 59/5/5 54/8/5 49/16/5 56/13/5
f 19/13/3 8/16/3 13/8/3 28/5/3
f 13/10/6 8/18/6 49/1/6 54/17/6
f 28/10/4 59/17/4 56/1/4 19/18/4
g Brush8
usemtl C1A0_LABFLRC
f 12/23/1 20/24/1 31/4/1 25/2/1
f 33/2/2 37/4/2 29/24/2 21/23/2
f 25/13/3 31/16/3 37/8/3 33/5/3
f 21/5/5 29/8/5 20/16/5 12/13/5
f 33/10/4 21/17/4 12/1/4 25/18/4
f 37/10/6 31/18/6 20/1/6 29/17/6
